HIERARCHY
ROOT root
{
	OFFSET 0.000000 0.000000 0.000000
	CHANNELS 6 Xposition Yposition Zposition Zrotation Yrotation Xrotation
	JOINT lhip
	{
		OFFSET 0.058581 -0.082280 -0.017664
		CHANNELS 3 Zrotation Yrotation Xrotation
		JOINT lknee
		{
			OFFSET 0.043451 -0.386469 0.008037
			CHANNELS 3 Zrotation Yrotation Xrotation
			JOINT lankle
			{
				OFFSET -0.014790 -0.426874 -0.037428
				CHANNELS 3 Zrotation Yrotation Xrotation
				JOINT ltoe
				{
					OFFSET 0.041054 -0.060286 0.122042
					CHANNELS 3 Zrotation Yrotation Xrotation
					End Site
					{
						OFFSET 0.000000 0.000000 0.000000
					}
				}
			}
		}
	}
	JOINT rhip
	{
		OFFSET -0.060310 -0.090513 -0.013543
		CHANNELS 3 Zrotation Yrotation Xrotation
		JOINT rknee
		{
			OFFSET -0.043257 -0.383688 -0.004843
			CHANNELS 3 Zrotation Yrotation Xrotation
			JOINT rankle
			{
				OFFSET 0.019056 -0.420046 -0.034562
				CHANNELS 3 Zrotation Yrotation Xrotation
				JOINT rtoe
				{
					OFFSET -0.034840 -0.062106 0.130323
					CHANNELS 3 Zrotation Yrotation Xrotation
					End Site
					{
						OFFSET 0.000000 0.000000 0.000000
					}
				}
			}
		}
	}
	JOINT lowerback
	{
		OFFSET 0.004439 0.124404 -0.038385
		CHANNELS 3 Zrotation Yrotation Xrotation
		JOINT upperback
		{
			OFFSET 0.004488 0.137956 0.026820
			CHANNELS 3 Zrotation Yrotation Xrotation
			JOINT chest
			{
				OFFSET -0.002265 0.056032 0.002855
				CHANNELS 3 Zrotation Yrotation Xrotation
				JOINT lowerneck
				{
					OFFSET -0.013390 0.211636 -0.033468
					CHANNELS 3 Zrotation Yrotation Xrotation
					JOINT upperneck
					{
						OFFSET 0.010113 0.088937 0.050410
						CHANNELS 3 Zrotation Yrotation Xrotation
						End Site
						{
							OFFSET 0.000000 0.000000 0.000000
						}
					}
				}
				JOINT lclavicle
				{
					OFFSET 0.071702 0.114000 -0.018898
					CHANNELS 3 Zrotation Yrotation Xrotation
					JOINT lshoulder
					{
						OFFSET 0.122921 0.045205 -0.019046
						CHANNELS 3 Zrotation Yrotation Xrotation
						JOINT lelbow
						{
							OFFSET 0.255332 -0.015649 -0.022946
							CHANNELS 3 Zrotation Yrotation Xrotation
							JOINT lwrist
							{
								OFFSET 0.265709 0.012698 -0.007375
								CHANNELS 3 Zrotation Yrotation Xrotation
								End Site
								{
									OFFSET 0.000000 0.000000 0.000000
								}
							}
						}
					}
				}
				JOINT rclavicle
				{
					OFFSET -0.082954 0.112472 -0.023707
					CHANNELS 3 Zrotation Yrotation Xrotation
					JOINT rshoulder
					{
						OFFSET -0.113228 0.046853 -0.008472
						CHANNELS 3 Zrotation Yrotation Xrotation
						JOINT relbow
						{
							OFFSET -0.260127 -0.014369 -0.031269
							CHANNELS 3 Zrotation Yrotation Xrotation
							JOINT rwrist
							{
								OFFSET -0.269108 0.006794 -0.006027
								CHANNELS 3 Zrotation Yrotation Xrotation
								End Site
								{
									OFFSET 0.000000 0.000000 0.000000
								}
							}
						}
					}
				}
			}
		}
	}
}
MOTION
Frames: 16
Frame Time: 0.033333
0.332696 0.069825 0.990612 -90.578574 2.469466 90.904288 2.433733 1.396789 -0.137826 -3.331092 -9.161235 6.356699 5.328706 4.816558 -11.612829 0.000000 -0.000000 0.000000 -2.932919 -3.185989 -3.725322 0.047577 2.324643 11.659181 5.552047 -9.584039 -10.275739 0.000000 -0.000000 0.000000 -0.643123 2.154100 5.286953 2.690146 -1.725113 -3.357040 0.624693 -3.277046 1.956775 1.189766 14.364878 9.340996 -7.506595 15.364514 8.034301 -22.730287 12.963753 0.870685 -51.593389 -2.225870 3.294297 12.074016 -39.108160 7.946836 5.427426 -2.028843 -14.874210 18.818046 -11.789180 -7.876065 33.068215 15.861902 -16.866980 -49.345042 8.492831 -84.384316 -13.271733 3.097373 -57.251813 
0.333019 0.069856 0.990344 -90.798253 2.611893 90.645133 2.607039 1.566784 -0.002282 -3.394215 -9.098879 6.632148 5.202127 4.852797 -11.792912 0.000000 -0.000000 0.000000 -2.759240 -3.326757 -3.634669 -0.051878 2.441245 11.851013 5.364560 -9.375177 -10.375448 0.000000 -0.000000 0.000000 -0.614758 1.955996 5.839931 2.697563 -1.742373 -3.570937 0.574372 -3.204983 2.205993 0.839381 11.315027 8.425323 -7.331835 12.182541 8.830991 -22.670149 13.091445 1.105496 -51.818597 -2.318420 3.322676 11.710950 -38.940821 8.443888 6.220917 -2.167762 -15.179580 19.029084 -11.592871 -8.061332 33.240881 15.679478 -16.934275 -49.158795 9.069652 -83.256131 -13.472876 3.072194 -57.242305 
0.333526 0.069911 0.989866 -91.036313 2.686919 90.557287 2.666261 1.419850 0.044942 -3.341606 -8.849400 6.712171 5.061536 4.918742 -11.800225 0.000000 -0.000000 0.000000 -2.706589 -3.315740 -3.702704 0.029134 2.594388 12.051689 5.229984 -9.222764 -10.450079 0.000000 -0.000000 0.000000 -0.691271 1.907801 5.786123 2.866623 -1.856519 -2.944462 0.543707 -3.205001 2.296522 0.541250 8.404752 8.073663 -7.374833 9.017280 8.386096 -22.797946 13.188804 1.119900 -51.975408 -2.510955 3.460258 11.749266 -38.914795 8.866867 5.228837 -2.235280 -15.219866 19.272082 -11.253132 -8.351700 33.189747 15.645514 -17.133690 -49.223173 8.835056 -82.689547 -12.530119 3.745016 -56.525394 
0.335057 0.070377 0.989497 -91.307970 2.726554 90.745041 2.731735 1.352595 -0.352655 -3.388295 -8.610039 7.019386 5.072480 4.874367 -11.888651 0.000000 -0.000000 0.000000 -2.671159 -3.224303 -4.345173 0.100500 2.537901 12.652759 5.176046 -9.073056 -10.585125 0.000000 -0.000000 0.000000 -0.770693 1.847070 6.279277 2.988673 -1.929554 -3.016976 0.645217 -3.228031 2.250422 0.369210 6.119177 7.200590 -7.265341 6.965431 7.755480 -22.814694 13.441227 1.210654 -52.167966 -2.391492 3.559972 11.649967 -39.359450 9.407918 3.878314 -2.308295 -15.149061 19.264731 -11.149171 -8.446684 33.287167 14.835111 -17.042135 -49.390584 9.292189 -82.070388 -10.857850 4.970970 -56.149412 
0.336035 0.070810 0.989478 -91.558103 2.688961 90.977071 2.682073 1.286821 -0.633081 -3.381925 -8.558237 7.077734 5.010535 5.020186 -11.935690 0.000000 -0.000000 0.000000 -2.692945 -3.198654 -4.860545 0.107583 2.676386 12.940475 5.240644 -9.006277 -10.605891 0.000000 -0.000000 0.000000 -0.819307 1.909960 6.818108 3.047639 -1.912521 -3.418527 0.678921 -3.351927 2.351064 0.396265 5.365340 6.447964 -6.973753 6.116685 7.465292 -22.968633 13.652013 0.736031 -52.059720 -1.971334 3.814493 11.656766 -39.629309 9.469243 3.114750 -2.374631 -15.059141 19.678172 -11.314522 -9.132203 32.912897 14.431307 -16.785622 -49.617257 9.555053 -81.723766 -8.901508 5.687887 -55.334524 
0.337578 0.071345 0.988977 -91.725016 2.598090 91.080039 2.637813 1.246675 -0.864335 -3.429676 -8.411244 7.197415 5.016840 4.944537 -11.983390 0.000000 -0.000000 0.000000 -2.788694 -3.093575 -5.297579 0.164638 2.642837 13.313874 5.220617 -8.998181 -10.781847 0.000000 -0.000000 0.000000 -0.948299 1.870750 6.963737 3.192999 -2.021654 -2.687546 0.857169 -3.399823 2.322612 0.178084 4.764062 5.142624 -6.911862 5.576015 6.026741 -23.094955 13.491709 0.546885 -52.154778 -2.047927 3.859852 11.870488 -39.623728 9.376841 2.410444 -2.621202 -15.366510 19.880660 -11.106795 -9.167653 32.382417 13.452489 -16.635693 -50.138481 10.656520 -80.720397 -7.696794 6.935238 -54.855236 
0.338364 0.072126 0.988438 -91.791422 2.535584 91.255549 2.642394 1.029660 -1.049215 -3.458063 -8.323322 7.129140 4.888385 5.108235 -11.894620 0.000000 -0.000000 0.000000 -2.823801 -3.026768 -5.782079 0.273437 2.747344 13.800311 5.222184 -9.097543 -10.983536 0.000000 -0.000000 0.000000 -0.869030 1.705052 7.377460 3.211358 -2.291753 -2.483547 1.041553 -3.534242 2.484573 -0.256279 3.900879 3.911161 -6.437753 5.106242 3.992851 -23.329464 13.302579 0.552760 -51.969851 -1.576063 3.886266 12.363365 -40.475139 8.217204 2.215598 -2.440827 -15.027204 19.909570 -10.741288 -9.126187 31.605054 11.920364 -16.132918 -50.718620 12.579524 -79.997279 -6.102223 7.772729 -53.775803 
0.339286 0.073006 0.988313 -92.122099 2.475036 91.492675 2.594942 0.963299 -1.305498 -3.407659 -8.194272 7.065694 4.923680 5.176771 -11.696199 0.000000 -0.000000 0.000000 -2.839972 -2.778917 -6.376483 0.360705 2.803916 14.187367 5.115444 -9.150638 -11.171174 0.000000 -0.000000 0.000000 -0.807934 1.507558 7.912798 3.342903 -2.403311 -2.359621 1.355352 -3.514180 2.289409 -0.682102 4.328570 2.532200 -6.145138 5.857599 2.647617 -23.558975 12.844926 0.674810 -51.909414 -0.996321 3.760494 12.803319 -40.696552 7.581509 1.269392 -2.554466 -15.204832 20.089029 -10.649467 -8.827220 30.496325 10.515459 -15.581565 -52.631445 15.521061 -78.679684 -3.991634 9.056047 -52.081947 
0.340572 0.073848 0.988144 -92.518686 2.329302 91.580666 2.389290 0.839667 -1.443365 -3.268905 -8.030420 7.088440 4.945776 5.308021 -11.566152 0.000000 -0.000000 0.000000 -2.991120 -2.475864 -6.922628 0.419178 2.673310 14.768945 4.940342 -8.847148 -11.417861 0.000000 -0.000000 0.000000 -0.583305 1.193556 8.406999 3.392218 -2.680940 -1.732876 1.458726 -3.446255 2.123078 -1.032297 5.011402 0.742139 -5.835756 6.377946 1.514116 -23.777920 12.266490 0.523777 -51.734881 -0.351187 3.558798 13.232460 -41.069192 6.970594 -0.046879 -2.833998 -15.449245 20.486196 -10.363873 -8.508010 29.646455 9.271487 -14.556396 -56.316813 19.710192 -77.270958 -1.425229 10.676921 -49.856451 
0.341496 0.075495 0.988301 -93.460835 2.214275 91.841847 2.211735 0.982155 -1.604831 -3.081302 -7.762020 6.906268 4.790448 5.623427 -11.385846 0.000000 -0.000000 0.000000 -3.022400 -2.175849 -7.644955 0.439942 3.075038 15.130115 4.711186 -8.633119 -11.416597 0.000000 -0.000000 0.000000 -0.195755 0.812049 8.713557 3.507418 -3.093345 -1.129903 1.518925 -3.347682 2.127970 -1.317554 5.848454 -1.178177 -5.590132 7.419566 0.204664 -24.165853 11.664542 0.572150 -51.408526 0.893577 3.108570 13.428553 -42.177256 7.075984 -0.756223 -2.668244 -16.067359 20.948224 -10.044220 -8.292136 28.771169 8.265524 -12.636743 -63.305211 26.446039 -76.131284 1.236268 11.839816 -45.975402 
0.343685 0.076809 0.988650 -94.677796 2.050199 92.319640 1.920400 0.761937 -2.157062 -2.881965 -6.997609 6.904888 4.859964 6.189032 -11.091926 0.000000 -0.000000 0.000000 -3.078439 -1.751563 -8.943995 0.412169 3.508381 15.836375 4.692394 -8.335826 -11.373399 0.000000 -0.000000 0.000000 0.070440 0.651613 9.275214 3.540451 -3.203449 -1.220881 1.474916 -3.147739 1.984309 -1.421926 6.803766 -2.330847 -5.297021 8.114995 -0.113819 -24.277687 11.190914 0.201018 -51.159985 1.764017 2.945685 13.026563 -42.797124 7.548933 -1.188415 -2.862232 -16.109195 21.192228 -9.883987 -8.028286 28.319431 7.973948 -10.701934 -70.084155 32.634355 -76.014082 2.877216 12.737683 -41.494496 
0.345629 0.077841 0.989674 -95.762879 1.945890 92.598496 1.660413 0.791676 -2.617754 -2.669463 -6.269373 7.187514 4.879516 6.573885 -11.176932 0.000000 -0.000000 0.000000 -3.131242 -1.345093 -9.817995 0.347507 3.785252 16.222428 4.766075 -7.806906 -11.158402 0.000000 -0.000000 0.000000 0.511366 0.566781 9.714528 3.574940 -3.400701 -1.059143 1.348651 -2.997247 2.262428 -1.491206 7.383060 -3.046052 -5.397804 8.624239 -0.445843 -24.518139 10.458179 -0.250934 -51.041579 2.177333 2.884419 12.853313 -43.289615 7.857718 -1.103849 -3.011638 -15.561262 21.441100 -9.424338 -8.355334 28.370932 8.341841 -8.119163 -78.555827 38.871362 -77.120804 4.723437 12.911918 -35.172928 
0.348955 0.078694 0.990666 -97.089027 1.817927 93.127881 1.416729 0.531526 -3.638502 -2.601016 -5.168622 7.780852 5.192498 7.194653 -11.090261 0.000000 -0.000000 0.000000 -3.285658 -0.861801 -11.180697 0.387585 4.040502 16.759431 4.741057 -7.127697 -10.890748 0.000000 -0.000000 0.000000 0.831258 0.470253 10.321978 3.658240 -3.430868 -1.135746 1.226582 -2.713564 2.118978 -1.439695 8.009290 -3.855576 -5.207663 8.985731 0.722080 -24.701887 9.452325 -0.078470 -51.091177 2.554908 2.782681 12.968021 -43.915750 7.790423 -1.216517 -2.890951 -15.256001 21.685710 -8.268113 -7.729170 28.709719 9.475068 -5.696960 -87.454372 44.441893 -78.968878 6.967662 12.735467 -27.355947 
0.353302 0.079335 0.991406 -98.534848 1.724203 93.659379 1.195429 0.236931 -4.898943 -2.461846 -3.856171 8.757034 5.417946 7.711791 -11.154240 0.000000 -0.000000 0.000000 -3.505597 -0.119817 -12.699388 0.441050 3.769447 17.381405 4.943852 -6.358298 -10.574151 0.000000 -0.000000 0.000000 1.045758 0.421022 11.212833 3.699448 -3.252632 -1.209595 1.129735 -2.165892 2.333711 -0.987626 8.204825 -4.524490 -4.976488 8.380764 1.408599 -24.902052 8.345318 -0.795693 -51.158348 2.446157 3.518783 12.924644 -44.481900 7.407884 -0.972430 -2.630978 -14.764572 22.553526 -6.542870 -7.869587 29.412459 11.491384 -2.416223 -95.276997 49.322540 -81.263163 8.627659 11.715922 -18.866341 
0.358504 0.079586 0.991365 -99.905385 1.671958 94.134556 1.130485 0.268163 -6.255666 -2.569756 -2.742644 9.851440 5.924146 8.366041 -11.308607 0.000000 -0.000000 0.000000 -3.614647 0.124799 -14.731794 0.629345 3.797655 18.942130 4.728204 -5.652542 -10.403684 0.000000 -0.000000 0.000000 1.204475 0.427247 12.164736 3.843957 -3.016652 -1.252854 1.069689 -1.620424 2.313779 -0.807745 7.709290 -4.246626 -4.242895 7.052169 2.391475 -24.914355 6.928526 -0.731360 -51.679268 1.929815 4.152877 13.306707 -45.301739 6.725575 0.815389 -2.027460 -14.704073 23.179272 -3.839656 -6.972334 30.952281 13.561502 1.041110 -100.164724 54.370564 -80.749312 7.234818 10.507130 -8.189991 
0.363378 0.080049 0.990005 -101.549324 1.563286 94.540703 1.195648 0.316451 -7.366850 -2.943935 -1.584338 10.768410 6.569598 9.209908 -11.378324 0.000000 -0.000000 0.000000 -3.842071 0.604079 -16.932462 1.117531 4.014131 21.037791 4.380613 -5.064378 -10.339235 0.000000 -0.000000 0.000000 1.111235 0.374668 13.762849 3.840374 -2.261487 -1.760370 1.251518 -0.888574 2.018608 -0.467426 6.721577 -4.303770 -3.675415 5.777388 5.330781 -24.735912 5.255850 -0.148262 -52.409213 1.125033 5.037087 13.567005 -45.897598 6.906577 3.867522 -1.866406 -15.573606 23.783689 -0.132302 -4.895351 32.801507 15.465151 4.363388 -96.912742 59.458635 -73.069004 3.976570 10.365124 1.505700 
